<?xml version="1.0" encoding="UTF-8"?>
<svg width="29px" height="29px" viewBox="0 0 29 29" version="1.1" xmlns="http://www.w3.org/2000/svg" xmlns:xlink="http://www.w3.org/1999/xlink">
    <!-- Generator: sketchtool 59.1 (101010) - https://sketch.com -->
    <title>BAF9375D-ABD4-4C2E-B35E-56FE2EC906C4</title>
    <desc>Created with sketchtool.</desc>
    <g id="Page-1" stroke="none" stroke-width="1" fill="none" fill-rule="evenodd" stroke-linecap="round" stroke-linejoin="round">
        <g id="GLOWOASIS-D-Home-dev" transform="translate(-1808.000000, -75.000000)" stroke="#FFFFFF" stroke-width="2">
            <g id="Header">
                <g id="Group-13" transform="translate(102.000000, 0.000000)">
                    <g id="account-1" transform="translate(1706.000000, 75.500000)">
                        <path d="M22.613348,23.7730515 C22.613348,23.7730515 23.4169811,21.4899591 22.658855,20.635978 C21.2694412,19.0732506 18.7365448,19.6425713 17.376178,18.0169088 C17.1563892,17.7525814 16.9956626,17.4233823 16.9956626,17.0796597 C16.9946944,16.7620794 17.1283105,16.4590226 17.2832277,16.1821081 C17.6685843,15.49079 18.2020804,14.8982317 18.5370889,14.1778667 C18.8517645,13.5020403 19.0337922,12.7642471 19.0696168,12.0196763 C19.1093143,11.1957103 19.0521886,10.3552845 19.0521886,9.52841383 C19.0521886,6.87642479 16.9027123,4.72694847 14.2507233,4.72694847 C11.5997025,4.72694847 9.4492579,6.87642479 9.4492579,9.52841383 C9.4492579,10.3552845 9.39213218,11.1957103 9.43182972,12.0196763 C9.46765432,12.7642471 9.65065028,13.5020403 9.96435763,14.1778667 C10.2993661,14.8982317 10.8328623,15.49079 11.2182188,16.1821081 C11.373136,16.4590226 11.5067521,16.7620794 11.5057839,17.0796597 C11.5057839,17.4233823 11.3460255,17.7525814 11.1252685,18.0169088 C9.76490172,19.6425713 7.2320053,19.0732506 5.84259155,20.635978 C5.07962427,21.4948003 5.89100317,23.7730515 5.89100317,23.7730515 L22.613348,23.7730515 Z"></path>
                    </g>
                </g>
            </g>
        </g>
    </g>
</svg>