<?xml version="1.0" encoding="UTF-8"?>
<svg width="20px" height="21px" viewBox="0 0 20 21" version="1.1" xmlns="http://www.w3.org/2000/svg" xmlns:xlink="http://www.w3.org/1999/xlink">
    <!-- Generator: sketchtool 59.1 (101010) - https://sketch.com -->
    <title>DFB66CDF-0E8C-45AF-B7EB-DF08403D9C97</title>
    <desc>Created with sketchtool.</desc>
    <g id="Page-1" stroke="none" stroke-width="1" fill="none" fill-rule="evenodd">
        <g id="GLOWOASIS-D-Home-dev" transform="translate(-1877.000000, -80.000000)" stroke="#FFFFFF" stroke-width="2">
            <g id="Header">
                <g id="Group-13" transform="translate(102.000000, 0.000000)">
                    <g id="Group" transform="translate(1771.615385, 77.500000)">
                        <g id="bag-icon-3">
                            <g transform="translate(4.728318, 3.697923)">
                                <path d="M12.3947273,18.3657506 L4.80342775,18.3657506 C2.15069075,18.3657506 7.35739311e-14,16.0691572 7.35739311e-14,13.2355843 L7.35739311e-14,6.48485909 C7.35739311e-14,5.80095352 0.518426217,5.24735732 1.15888325,5.24735732 L16.0400908,5.24735732 C16.6797288,5.24735732 17.198974,5.80095352 17.198974,6.48485909 L17.198974,13.2355843 C17.198974,16.0691572 15.0482833,18.3657506 12.3947273,18.3657506 Z" id="Stroke-5"></path>
                                <path d="M4.5042475,7.87103598 L4.5042475,4.37279777 C4.5042475,1.95726428 6.33716673,-1.09211304e-14 8.59924131,-1.09211304e-14 C10.8604969,-1.09211304e-14 12.6942351,1.95726428 12.6942351,4.37279777 L12.6942351,7.87103598" id="Stroke-7" stroke-linecap="round" stroke-linejoin="round"></path>
                            </g>
                        </g>
                    </g>
                </g>
            </g>
        </g>
    </g>
</svg>