<?xml version="1.0" encoding="UTF-8"?>
<svg width="353px" height="65px" viewBox="0 0 353 65" version="1.1" xmlns="http://www.w3.org/2000/svg" xmlns:xlink="http://www.w3.org/1999/xlink">
    <!-- Generator: sketchtool 59.1 (101010) - https://sketch.com -->
    <title>787CFBDB-21C3-4437-BA6B-CE71628F09AC</title>
    <desc>Created with sketchtool.</desc>
    <defs>
        <polygon id="path-1" points="0 0.431109096 40.2556366 0.431109096 40.2556366 55.3564209 0 55.3564209"></polygon>
        <polygon id="path-3" points="0.268674346 0.131513436 5.13081332 0.131513436 5.13081332 4.99337283 0.268674346 4.99337283"></polygon>
    </defs>
    <g id="Page-1" stroke="none" stroke-width="1" fill="none" fill-rule="evenodd">
        <g id="GLOWOASIS-D-Home-dev" transform="translate(-821.000000, -57.000000)">
            <g id="Header">
                <g id="Group-13" transform="translate(102.000000, 0.000000)">
                    <g id="Group-161" transform="translate(719.640397, 57.000000)">
                        <polygon id="Fill-1" fill="#FFFFFF" points="50.2563612 49.2716879 56.9019275 49.2716879 56.9019275 -0.000559155767 50.2563612 -0.000559155767"></polygon>
                        <g id="Group-160" transform="translate(0.000000, 5.900771)">
                            <path d="M94.6362189,33.9754786 C97.2334974,31.3782001 98.5318571,28.1703235 98.5318571,24.2741261 C98.5318571,20.3784878 97.2334974,17.1700521 94.6362189,14.5727735 C92.0389404,11.9760541 88.8305046,10.6771353 85.0114707,10.6771353 C81.268482,10.6771353 78.0600462,11.9760541 75.4627677,14.5727735 C72.8654891,17.1700521 71.5671294,20.3784878 71.5671294,24.2741261 C71.5671294,28.1703235 72.8654891,31.3782001 75.4627677,33.9754786 C78.0600462,36.5727572 81.268482,37.8711169 85.0114707,37.8711169 C88.8305046,37.8711169 92.0389404,36.5727572 94.6362189,33.9754786 M85.0114707,44.3640336 C79.4350102,44.3640336 74.6229157,42.4545167 70.7267183,38.5588784 C66.8310801,34.6626811 64.9215631,29.9271909 64.9215631,24.2741261 C64.9215631,18.6216204 66.8310801,13.8855711 70.7267183,9.98993285 C74.6229157,6.09429462 79.4350102,4.18421852 85.0114707,4.18421852 C90.587372,4.18421852 95.4000257,6.09429462 99.2956639,9.98993285 C103.191302,13.8855711 105.177423,18.6216204 105.177423,24.2741261 C105.177423,29.9271909 103.191302,34.6626811 99.2956639,38.5588784 C95.4000257,42.4545167 90.587372,44.3640336 85.0114707,44.3640336" id="Fill-2" fill="#FFFFFF"></path>
                            <polygon id="Fill-4" fill="#FFFFFF" points="156.509768 5.17733508 163.461193 5.17733508 151.621069 43.3710289 144.822294 43.3710289 135.885308 15.1079415 126.947762 43.3710289 120.149546 43.3710289 108.309423 5.17733508 115.260288 5.17733508 123.663281 34.2047884 132.676872 5.17733508 139.093743 5.17733508 148.107334 34.2808336"></polygon>
                            <g id="Group-8" transform="translate(0.000000, 3.354935)">
                                <mask id="mask-2" fill="white">
                                    <use xlink:href="#path-1"></use>
                                </mask>
                                <g id="Clip-7"></g>
                                <path d="M20.0896839,34.1180074 C16.3466952,34.1180074 13.1382594,32.8190886 10.5409809,30.2223692 C7.94426147,27.6250907 6.64590178,24.4166549 6.64590178,20.5210166 C6.64590178,16.6253784 7.94426147,13.4169426 10.5409809,10.8196641 C13.1382594,8.22238555 16.3466952,6.92402586 20.0896839,6.92402586 C23.9092769,6.92402586 27.1171536,8.22238555 29.7144321,10.8196641 C32.3117106,13.4169426 33.6100703,16.6253784 33.6100703,20.5210166 C33.6100703,24.4166549 32.3117106,27.6250907 29.7144321,30.2223692 C27.1171536,32.8190886 23.9092769,34.1180074 20.0896839,34.1180074 M40.2556366,20.5210166 C40.2556366,14.868511 38.2700745,10.1324617 34.3738771,6.23682342 C30.4782389,2.34062604 25.6661444,0.431109096 20.0896839,0.431109096 C14.5132234,0.431109096 9.70112889,2.34062604 5.80549067,6.23682342 C1.90929328,10.1324617 -0.000223662307,14.868511 -0.000223662307,20.5210166 C-0.000223662307,26.1735223 1.90929328,30.9095716 5.80549067,34.8052099 C9.70112889,38.7014073 14.5132234,40.6109242 20.0896839,40.6109242 C25.2965424,40.6109242 29.8368872,38.94464 33.5871449,35.552242 L33.5871449,37.4818885 C33.5871449,44.7386121 28.7744913,49.1688032 20.8300061,49.1688032 C14.6429476,49.1688032 10.4414511,47.0300324 8.37928466,42.7524908 L2.57357033,46.0369718 C5.70540178,52.07194 12.1217142,55.3564209 20.6773566,55.3564209 C26.0245632,55.3564209 30.607963,53.752203 34.4269969,50.6209307 C38.24659,47.4885401 40.1561069,43.1343942 40.1561069,37.4818885 L40.2534,20.6535366 L40.2528408,20.6540957 C40.2534,20.6093633 40.2556366,20.5657491 40.2556366,20.5210166" id="Fill-6" fill="#FFFFFF" mask="url(#mask-2)"></path>
                            </g>
                            <path d="M44.3348457,4.66593121 C44.3348457,7.09881795 42.3627033,9.07040119 39.9303757,9.07040119 C37.497489,9.07040119 35.5253466,7.09881795 35.5253466,4.66593121 C35.5253466,2.23304447 37.497489,0.261461237 39.9303757,0.261461237 C42.3627033,0.261461237 44.3348457,2.23304447 44.3348457,4.66593121" id="Fill-9" fill="#FFFFFF"></path>
                            <path d="M189.366152,5.58031864 C189.366152,6.92285163 188.278035,8.01096876 186.934943,8.01096876 C185.59241,8.01096876 184.504293,6.92285163 184.504293,5.58031864 C184.504293,4.23778564 185.59241,3.14910936 186.934943,3.14910936 C188.278035,3.14910936 189.366152,4.23778564 189.366152,5.58031864" id="Fill-11" fill="#FFFFFF"></path>
                            <path d="M189.50158,42.9869448 C189.50158,44.3294778 188.412904,45.4181541 187.070371,45.4181541 C185.727838,45.4181541 184.63972,44.3294778 184.63972,42.9869448 C184.63972,41.6444118 185.727838,40.5557355 187.070371,40.5557355 C188.412904,40.5557355 189.50158,41.6444118 189.50158,42.9869448" id="Fill-13" fill="#FFFFFF"></path>
                            <path d="M205.812657,26.6791669 C204.470124,26.6791669 203.381448,25.5904906 203.381448,24.2479576 C203.381448,22.9054246 204.470124,21.8173075 205.812657,21.8173075 C207.15519,21.8173075 208.243866,22.9054246 208.243866,24.2479576 C208.243866,25.5904906 207.15519,26.6791669 205.812657,26.6791669" id="Fill-15" fill="#FFFFFF"></path>
                            <path d="M168.406031,26.8143148 C167.063498,26.8143148 165.974821,25.7256385 165.974821,24.3831055 C165.974821,23.0405725 167.063498,21.9524554 168.406031,21.9524554 C169.748004,21.9524554 170.83724,23.0405725 170.83724,24.3831055 C170.83724,25.7256385 169.748004,26.8143148 168.406031,26.8143148" id="Fill-17" fill="#FFFFFF"></path>
                            <path d="M198.566054,39.163214 C197.617167,38.2137675 197.617167,36.6744117 198.566054,35.7255243 C199.5155,34.7760779 201.054856,34.7760779 202.003744,35.7255243 C202.953749,36.6744117 202.953749,38.2137675 202.003744,39.163214 C201.054856,40.1126605 199.5155,40.1126605 198.566054,39.163214" id="Fill-19" fill="#FFFFFF"></path>
                            <path d="M172.019798,12.8080779 C171.070911,11.8586314 171.070911,10.3192756 172.019798,9.37038826 C172.969245,8.42094177 174.508601,8.42094177 175.457488,9.37038826 C176.407494,10.3192756 176.407494,11.8586314 175.457488,12.8080779 C174.508601,13.7575244 172.969245,13.7575244 172.019798,12.8080779" id="Fill-21" fill="#FFFFFF"></path>
                            <path d="M172.161209,35.8792922 C173.110655,34.9298457 174.650011,34.9298457 175.598899,35.8792922 C176.548904,36.8287387 176.548904,38.3680945 175.598899,39.3169818 C174.650011,40.2664283 173.110655,40.2664283 172.161209,39.3169818 C171.212322,38.3680945 171.212322,36.8287387 172.161209,35.8792922" id="Fill-23" fill="#FFFFFF"></path>
                            <path d="M198.516345,9.33303665 C199.465792,8.38359016 201.005147,8.38359016 201.954035,9.33303665 C202.90404,10.2824831 202.90404,11.821839 201.954035,12.7707263 C201.005147,13.7201728 199.465792,13.7201728 198.516345,12.7707263 C197.567458,11.821839 197.567458,10.2824831 198.516345,9.33303665" id="Fill-25" fill="#FFFFFF"></path>
                            <path d="M205.225655,19.3524929 C203.982093,19.859088 202.563514,19.2613505 202.057479,18.0177881 C201.551443,16.7747848 202.148621,15.3562067 203.392183,14.8496115 C204.635187,14.3435756 206.053765,14.9407539 206.56036,16.1837572 C207.066955,17.4273196 206.469777,18.8458978 205.225655,19.3524929" id="Fill-27" fill="#FFFFFF"></path>
                            <path d="M170.632813,33.5872009 C169.38925,34.093796 167.970672,33.4960585 167.464636,32.252496 C166.9586,31.0094928 167.555778,29.5909146 168.799341,29.0843195 C170.042344,28.5782835 171.460922,29.1754619 171.967517,30.4184651 C172.474113,31.6625867 171.876934,33.0806057 170.632813,33.5872009" id="Fill-29" fill="#FFFFFF"></path>
                            <path d="M191.888895,42.5424719 C191.382859,41.2989095 191.980038,39.8803313 193.2236,39.3737361 C194.466603,38.8677002 195.885182,39.4654377 196.391777,40.708441 C196.898372,41.9520034 196.301194,43.3705816 195.057072,43.8771767 C193.81351,44.3832127 192.394931,43.7860343 191.888895,42.5424719" id="Fill-31" fill="#FFFFFF"></path>
                            <path d="M177.653908,7.94962937 C177.147872,6.70606694 177.74505,5.28748876 178.988613,4.78089364 C180.231616,4.27485767 181.650194,4.87259518 182.157348,6.11559845 C182.663384,7.35916088 182.066206,8.77773906 180.822644,9.28433419 C179.579081,9.79037015 178.160503,9.1931918 177.653908,7.94962937" id="Fill-33" fill="#FFFFFF"></path>
                            <path d="M177.593855,40.5403587 C178.114988,39.302947 179.540276,38.7225433 180.777687,39.2436765 C182.015099,39.7648097 182.595503,41.1900977 182.07437,42.4275095 C181.553237,43.6649212 180.127389,44.2453249 178.889978,43.7241917 C177.652566,43.2030585 177.072162,41.7777705 177.593855,40.5403587" id="Fill-35" fill="#FFFFFF"></path>
                            <path d="M191.988872,6.0138321 C192.510565,4.77642039 193.935294,4.19601671 195.172705,4.71714988 C196.410117,5.23828306 196.990521,6.66413026 196.469947,7.90098282 C195.948814,9.13839453 194.522966,9.71879822 193.285555,9.19766504 C192.048143,8.67653187 191.467739,7.25124382 191.988872,6.0138321" id="Fill-37" fill="#FFFFFF"></path>
                            <path d="M170.67542,14.8470394 C171.912832,15.3681726 172.493236,16.7934606 171.972102,18.0308724 C171.450969,19.2682841 170.025681,19.8486878 168.78827,19.3281137 C167.550858,18.8069806 166.970454,17.3811334 167.491587,16.1437216 C168.012161,14.9063099 169.438009,14.3259062 170.67542,14.8470394" id="Fill-39" fill="#FFFFFF"></path>
                            <path d="M205.201611,29.242281 C206.439023,29.7634141 207.019427,31.1887022 206.498294,32.4261139 C205.97772,33.6635256 204.551872,34.2444885 203.314461,33.7233553 C202.077049,33.2022221 201.496645,31.7763749 202.017778,30.5389632 C202.538912,29.3015515 203.9642,28.7211478 205.201611,29.242281" id="Fill-41" fill="#FFFFFF"></path>
                            <path d="M235.322885,5.72525181 C235.322885,7.06778481 234.234768,8.15646109 232.891676,8.15646109 C231.549143,8.15646109 230.461026,7.06778481 230.461026,5.72525181 C230.461026,4.38271882 231.549143,3.29404254 232.891676,3.29404254 C234.234768,3.29404254 235.322885,4.38271882 235.322885,5.72525181" id="Fill-43" fill="#FFFFFF"></path>
                            <path d="M234.522901,43.1322135 C234.522901,44.4747465 233.434784,45.5634227 232.091692,45.5634227 C230.749159,45.5634227 229.661042,44.4747465 229.661042,43.1322135 C229.661042,41.7896805 230.749159,40.7010042 232.091692,40.7010042 C233.434784,40.7010042 234.522901,41.7896805 234.522901,43.1322135" id="Fill-45" fill="#FFFFFF"></path>
                            <path d="M250.267162,25.1376303 C248.925188,25.1376303 247.835953,24.0495132 247.835953,22.706421 C247.835953,21.363888 248.925188,20.2757709 250.267162,20.2757709 C251.609695,20.2757709 252.698371,21.363888 252.698371,22.706421 C252.698371,24.0495132 251.609695,25.1376303 250.267162,25.1376303" id="Fill-47" fill="#FFFFFF"></path>
                            <path d="M214.362708,26.9595276 C213.020175,26.9595276 211.931498,25.8708513 211.931498,24.5283183 C211.931498,23.1857853 213.020175,22.0976682 214.362708,22.0976682 C215.704681,22.0976682 216.793917,23.1857853 216.793917,24.5283183 C216.793917,25.8708513 215.704681,26.9595276 214.362708,26.9595276" id="Fill-49" fill="#FFFFFF"></path>
                            <path d="M242.069882,40.0494759 C241.120436,39.1000294 241.120436,37.5606736 242.069882,36.6117862 C243.01877,35.6623397 244.558126,35.6623397 245.507572,36.6117862 C246.457019,37.5606736 246.457019,39.1000294 245.507572,40.0494759 C244.558126,40.9989224 243.01877,40.9989224 242.069882,40.0494759" id="Fill-51" fill="#FFFFFF"></path>
                            <path d="M217.976475,12.9533466 C217.027588,12.0039001 217.027588,10.4645443 217.976475,9.51565693 C218.925922,8.56621043 220.465278,8.56621043 221.414724,9.51565693 C222.364171,10.4645443 222.364171,12.0039001 221.414724,12.9533466 C220.465278,13.9027931 218.925922,13.9027931 217.976475,12.9533466" id="Fill-53" fill="#FFFFFF"></path>
                            <path d="M218.117942,36.0245049 C219.067388,35.0750584 220.606744,35.0750584 221.555632,36.0245049 C222.505637,36.9739514 222.505637,38.5127481 221.555632,39.4621946 C220.606744,40.4116411 219.067388,40.4116411 218.117942,39.4621946 C217.169055,38.5127481 217.169055,36.9739514 218.117942,36.0245049" id="Fill-55" fill="#FFFFFF"></path>
                            <path d="M244.473022,9.47824941 C245.422469,8.52880291 246.961824,8.52880291 247.910712,9.47824941 C248.860717,10.4276959 248.860717,11.9664926 247.910712,12.9159391 C246.961824,13.8653856 245.422469,13.8653856 244.473022,12.9159391 C243.524135,11.9664926 243.524135,10.4276959 244.473022,9.47824941" id="Fill-57" fill="#FFFFFF"></path>
                            <path d="M251.182388,18.6330831 C249.938826,19.1396782 248.520247,18.5419407 248.014211,17.2983783 C247.508175,16.055375 248.105354,14.6367968 249.348916,14.1302017 C250.59192,13.6241658 252.010498,14.2213441 252.517093,15.4643474 C253.023688,16.7079098 252.42651,18.126488 251.182388,18.6330831" id="Fill-59" fill="#FFFFFF"></path>
                            <path d="M216.589545,33.7324695 C215.345983,34.2390647 213.927964,33.6413271 213.421369,32.3977647 C212.915333,31.1547614 213.512511,29.7361833 214.756074,29.2295881 C215.999077,28.7235522 217.417655,29.3207305 217.92425,30.5637338 C218.430845,31.8078554 217.833667,33.2258744 216.589545,33.7324695" id="Fill-61" fill="#FFFFFF"></path>
                            <path d="M236.441197,42.6776198 C235.935161,41.4340574 236.532339,40.0154792 237.775902,39.5088841 C239.018905,39.0028481 240.437483,39.6005856 240.944637,40.8435889 C241.450673,42.0871513 240.853495,43.5057295 239.609932,44.0123246 C238.365811,44.5183606 236.947792,43.9211823 236.441197,42.6776198" id="Fill-63" fill="#FFFFFF"></path>
                            <path d="M223.610641,8.09484212 C223.104605,6.8512797 223.701783,5.43270152 224.945346,4.92610639 C226.188349,4.42007042 227.606927,5.01780794 228.114081,6.26081121 C228.620117,7.50437363 228.022939,8.92295181 226.779377,9.42954694 C225.535814,9.93558291 224.117236,9.33840455 223.610641,8.09484212" id="Fill-65" fill="#FFFFFF"></path>
                            <path d="M223.550587,40.6853478 C224.071721,39.4479361 225.497009,38.8675324 226.73442,39.3886656 C227.971832,39.9097988 228.552236,41.335646 228.031103,42.5724985 C227.509969,43.8099103 226.084122,44.3903139 224.846711,43.8691808 C223.609299,43.3486067 223.028895,41.9227595 223.550587,40.6853478" id="Fill-67" fill="#FFFFFF"></path>
                            <path d="M237.945549,6.15910077 C238.467242,4.92168906 239.891971,4.34128537 241.129382,4.86241855 C242.366794,5.38355172 242.947198,6.80883977 242.426624,8.04625149 C241.905491,9.2836632 240.479643,9.86406688 239.242232,9.34293371 C238.00482,8.82180054 237.424416,7.39651249 237.945549,6.15910077" id="Fill-69" fill="#FFFFFF"></path>
                            <path d="M216.632097,14.9923081 C217.869509,15.5134413 218.449913,16.9387293 217.928779,18.176141 C217.407646,19.4135527 215.982358,19.9939564 214.744947,19.4733824 C213.507535,18.9522492 212.927131,17.526402 213.448264,16.2889903 C213.968838,15.0515786 215.394686,14.4711749 216.632097,14.9923081" id="Fill-71" fill="#FFFFFF"></path>
                            <path d="M251.14526,26.5945107 C252.382672,27.1156438 252.963075,28.5409319 252.441942,29.7783436 C251.920809,31.0157553 250.495521,31.5967182 249.258109,31.075585 C248.020698,30.5544518 247.439735,29.1286046 247.961427,27.8911929 C248.482001,26.6537812 249.907848,26.0733775 251.14526,26.5945107" id="Fill-73" fill="#FFFFFF"></path>
                            <path d="M248.463605,37.2580585 C247.514158,36.308612 247.514158,34.7692562 248.463605,33.8203688 C249.412492,32.8709223 250.951848,32.8709223 251.901295,33.8203688 C252.850741,34.7692562 252.850741,36.308612 251.901295,37.2580585 C250.951848,38.207505 249.412492,38.207505 248.463605,37.2580585" id="Fill-75" fill="#FFFFFF"></path>
                            <path d="M252.558974,42.0193257 C251.609527,41.0698793 251.609527,39.5305234 252.558974,38.5810769 C253.507861,37.6316304 255.047217,37.6316304 255.996663,38.5810769 C256.946669,39.5305234 256.946669,41.0698793 255.996663,42.0193257 C255.047217,42.9687722 253.507861,42.9687722 252.558974,42.0193257" id="Fill-77" fill="#FFFFFF"></path>
                            <path d="M295.568061,15.0015901 C294.226087,15.0015901 293.136852,13.9134729 293.136852,12.5703808 C293.136852,11.2278478 294.226087,10.1397307 295.568061,10.1397307 C296.910594,10.1397307 297.99927,11.2278478 297.99927,12.5703808 C297.99927,13.9134729 296.910594,15.0015901 295.568061,15.0015901" id="Fill-79" fill="#FFFFFF"></path>
                            <path d="M290.022969,10.5351656 C288.680995,10.5351656 287.59176,9.44648936 287.59176,8.10395636 C287.59176,6.76142337 288.680995,5.67330624 290.022969,5.67330624 C291.365502,5.67330624 292.454178,6.76142337 292.454178,8.10395636 C292.454178,9.44648936 291.365502,10.5351656 290.022969,10.5351656" id="Fill-81" fill="#FFFFFF"></path>
                            <path d="M283.104479,8.58113989 C281.761946,8.58113989 280.67327,7.49302277 280.67327,6.14993062 C280.67327,4.80739762 281.761946,3.7192805 283.104479,3.7192805 C284.446453,3.7192805 285.535688,4.80739762 285.535688,6.14993062 C285.535688,7.49302277 284.446453,8.58113989 283.104479,8.58113989" id="Fill-83" fill="#FFFFFF"></path>
                            <path d="M275.77048,8.45387604 C274.428506,8.45387604 273.339271,7.36575892 273.339271,6.02266677 C273.339271,4.68013377 274.428506,3.59201665 275.77048,3.59201665 C277.113013,3.59201665 278.201689,4.68013377 278.201689,6.02266677 C278.201689,7.36575892 277.113013,8.45387604 275.77048,8.45387604" id="Fill-85" fill="#FFFFFF"></path>
                            <path d="M268.81324,10.4966398 C267.470707,10.4966398 266.382031,9.40852268 266.382031,8.06543053 C266.382031,6.72289753 267.470707,5.63478041 268.81324,5.63478041 C270.155773,5.63478041 271.24445,6.72289753 271.24445,8.06543053 C271.24445,9.40852268 270.155773,10.4966398 268.81324,10.4966398" id="Fill-87" fill="#FFFFFF"></path>
                            <path d="M264.071879,15.9118397 C262.729905,15.9118397 261.64067,14.8237226 261.64067,13.4806305 C261.64067,12.1380975 262.729905,11.0499804 264.071879,11.0499804 C265.414412,11.0499804 266.503088,12.1380975 266.503088,13.4806305 C266.503088,14.8237226 265.414412,15.9118397 264.071879,15.9118397" id="Fill-89" fill="#FFFFFF"></path>
                            <path d="M265.760809,21.9697333 C264.418276,21.9697333 263.3296,20.8816162 263.3296,19.538524 C263.3296,18.1959911 264.418276,17.1078739 265.760809,17.1078739 C267.102783,17.1078739 268.192018,18.1959911 268.192018,19.538524 C268.192018,20.8816162 267.102783,21.9697333 265.760809,21.9697333" id="Fill-91" fill="#FFFFFF"></path>
                            <path d="M271.818143,25.6853234 C270.47561,25.6853234 269.386934,24.5966471 269.386934,23.2541141 C269.386934,21.9115811 270.47561,20.823464 271.818143,20.823464 C273.160117,20.823464 274.249353,21.9115811 274.249353,23.2541141 C274.249353,24.5966471 273.160117,25.6853234 271.818143,25.6853234" id="Fill-93" fill="#FFFFFF"></path>
                            <path d="M279.081745,26.716798 C277.739212,26.716798 276.650535,25.6286809 276.650535,24.2855888 C276.650535,22.9430558 277.739212,21.8549386 279.081745,21.8549386 C280.424278,21.8549386 281.512954,22.9430558 281.512954,24.2855888 C281.512954,25.6286809 280.424278,26.716798 279.081745,26.716798" id="Fill-95" fill="#FFFFFF"></path>
                            <path d="M264.81673,36.5610149 C266.159263,36.5610149 267.24794,37.6496912 267.24794,38.9922242 C267.24794,40.3347572 266.159263,41.4228743 264.81673,41.4228743 C263.474197,41.4228743 262.385521,40.3347572 262.385521,38.9922242 C262.385521,37.6496912 263.474197,36.5610149 264.81673,36.5610149" id="Fill-97" fill="#FFFFFF"></path>
                            <path d="M271.043321,39.4815973 C272.385295,39.4815973 273.474531,40.5697144 273.474531,41.9128066 C273.474531,43.2553396 272.385295,44.3434567 271.043321,44.3434567 C269.700788,44.3434567 268.612112,43.2553396 268.612112,41.9128066 C268.612112,40.5697144 269.700788,39.4815973 271.043321,39.4815973" id="Fill-99" fill="#FFFFFF"></path>
                            <path d="M278.517668,40.4639221 C279.859642,40.4639221 280.948877,41.5520393 280.948877,42.8951314 C280.948877,44.2376644 279.859642,45.3257815 278.517668,45.3257815 C277.175135,45.3257815 276.086459,44.2376644 276.086459,42.8951314 C276.086459,41.5520393 277.175135,40.4639221 278.517668,40.4639221" id="Fill-101" fill="#FFFFFF"></path>
                            <path d="M285.634323,39.8160284 C286.976856,39.8160284 288.065533,40.9041455 288.065533,42.2466785 C288.065533,43.5897706 286.976856,44.6778878 285.634323,44.6778878 C284.29179,44.6778878 283.203114,43.5897706 283.203114,42.2466785 C283.203114,40.9041455 284.29179,39.8160284 285.634323,39.8160284" id="Fill-103" fill="#FFFFFF"></path>
                            <path d="M292.600845,36.96562 C293.943378,36.96562 295.032054,38.0542963 295.032054,39.3968293 C295.032054,40.7393623 293.943378,41.8274794 292.600845,41.8274794 C291.258871,41.8274794 290.169636,40.7393623 290.169636,39.3968293 C290.169636,38.0542963 291.258871,36.96562 292.600845,36.96562" id="Fill-105" fill="#FFFFFF"></path>
                            <path d="M296.28557,31.22857 C297.628103,31.22857 298.716779,32.3166871 298.716779,33.6597793 C298.716779,35.0023123 297.628103,36.0904294 296.28557,36.0904294 C294.943037,36.0904294 293.85436,35.0023123 293.85436,33.6597793 C293.85436,32.3166871 294.943037,31.22857 296.28557,31.22857" id="Fill-107" fill="#FFFFFF"></path>
                            <path d="M292.872259,25.877002 C294.214792,25.877002 295.303468,26.9656783 295.303468,28.3082113 C295.303468,29.6507443 294.214792,30.7388614 292.872259,30.7388614 C291.529726,30.7388614 290.44105,29.6507443 290.44105,28.3082113 C290.44105,26.9656783 291.529726,25.877002 292.872259,25.877002" id="Fill-109" fill="#FFFFFF"></path>
                            <path d="M286.428828,22.9138678 C287.770802,22.9138678 288.860037,24.0025441 288.860037,25.3450771 C288.860037,26.6876101 287.770802,27.7757272 286.428828,27.7757272 C285.086295,27.7757272 283.997618,26.6876101 283.997618,25.3450771 C283.997618,24.0025441 285.086295,22.9138678 286.428828,22.9138678" id="Fill-111" fill="#FFFFFF"></path>
                            <path d="M348.65951,15.217536 C347.316977,15.217536 346.2283,14.1288598 346.2283,12.7863268 C346.2283,11.4437938 347.316977,10.3556766 348.65951,10.3556766 C350.002043,10.3556766 351.090719,11.4437938 351.090719,12.7863268 C351.090719,14.1288598 350.002043,15.217536 348.65951,15.217536" id="Fill-113" fill="#FFFFFF"></path>
                            <path d="M343.114362,10.750832 C341.771829,10.750832 340.683153,9.66271489 340.683153,8.31962274 C340.683153,6.97708974 341.771829,5.88897262 343.114362,5.88897262 C344.456895,5.88897262 345.545571,6.97708974 345.545571,8.31962274 C345.545571,9.66271489 344.456895,10.750832 343.114362,10.750832" id="Fill-115" fill="#FFFFFF"></path>
                            <path d="M336.195312,8.79708585 C334.852779,8.79708585 333.764103,7.70840957 333.764103,6.36587658 C333.764103,5.02334358 334.852779,3.93522646 336.195312,3.93522646 C337.537845,3.93522646 338.626522,5.02334358 338.626522,6.36587658 C338.626522,7.70840957 337.537845,8.79708585 336.195312,8.79708585" id="Fill-117" fill="#FFFFFF"></path>
                            <path d="M328.861873,8.669822 C327.51934,8.669822 326.430663,7.58114572 326.430663,6.23861272 C326.430663,4.89607973 327.51934,3.8079626 328.861873,3.8079626 C330.204406,3.8079626 331.293082,4.89607973 331.293082,6.23861272 C331.293082,7.58114572 330.204406,8.669822 328.861873,8.669822" id="Fill-119" fill="#FFFFFF"></path>
                            <path d="M321.904633,10.7126417 C320.5621,10.7126417 319.473424,9.6239654 319.473424,8.2814324 C319.473424,6.93889941 320.5621,5.85078228 321.904633,5.85078228 C323.247166,5.85078228 324.335842,6.93889941 324.335842,8.2814324 C324.335842,9.6239654 323.247166,10.7126417 321.904633,10.7126417" id="Fill-121" fill="#FFFFFF"></path>
                            <path d="M317.163272,16.127562 C315.820739,16.127562 314.732062,15.0394449 314.732062,13.6969119 C314.732062,12.3538198 315.820739,11.2657026 317.163272,11.2657026 C318.505805,11.2657026 319.594481,12.3538198 319.594481,13.6969119 C319.594481,15.0394449 318.505805,16.127562 317.163272,16.127562" id="Fill-123" fill="#FFFFFF"></path>
                            <path d="M318.851698,22.1853997 C317.509165,22.1853997 316.420489,21.0972826 316.420489,19.7541904 C316.420489,18.4116574 317.509165,17.3235403 318.851698,17.3235403 C320.194231,17.3235403 321.282908,18.4116574 321.282908,19.7541904 C321.282908,21.0972826 320.194231,22.1853997 318.851698,22.1853997" id="Fill-125" fill="#FFFFFF"></path>
                            <path d="M324.909033,25.9010457 C323.5665,25.9010457 322.477824,24.8129286 322.477824,23.4698364 C322.477824,22.1273034 323.5665,21.0391863 324.909033,21.0391863 C326.251566,21.0391863 327.340242,22.1273034 327.340242,23.4698364 C327.340242,24.8129286 326.251566,25.9010457 324.909033,25.9010457" id="Fill-127" fill="#FFFFFF"></path>
                            <path d="M332.173137,26.9327999 C330.830604,26.9327999 329.741928,25.8441236 329.741928,24.5015906 C329.741928,23.1590576 330.830604,22.0709405 332.173137,22.0709405 C333.51567,22.0709405 334.604347,23.1590576 334.604347,24.5015906 C334.604347,25.8441236 333.51567,26.9327999 332.173137,26.9327999" id="Fill-129" fill="#FFFFFF"></path>
                            <path d="M317.908123,36.7769609 C319.250097,36.7769609 320.338773,37.865078 320.338773,39.2081701 C320.338773,40.5507031 319.250097,41.6388202 317.908123,41.6388202 C316.56559,41.6388202 315.476914,40.5507031 315.476914,39.2081701 C315.476914,37.865078 316.56559,36.7769609 317.908123,36.7769609" id="Fill-131" fill="#FFFFFF"></path>
                            <path d="M324.134155,39.6972637 C325.476688,39.6972637 326.565364,40.78594 326.565364,42.1284729 C326.565364,43.4710059 325.476688,44.5591231 324.134155,44.5591231 C322.792181,44.5591231 321.702946,43.4710059 321.702946,42.1284729 C321.702946,40.78594 322.792181,39.6972637 324.134155,39.6972637" id="Fill-133" fill="#FFFFFF"></path>
                            <path d="M331.608502,40.6795885 C332.951035,40.6795885 334.039711,41.7682648 334.039711,43.1107978 C334.039711,44.4533308 332.951035,45.5414479 331.608502,45.5414479 C330.265969,45.5414479 329.177293,44.4533308 329.177293,43.1107978 C329.177293,41.7682648 330.265969,40.6795885 331.608502,40.6795885" id="Fill-135" fill="#FFFFFF"></path>
                            <path d="M338.725716,40.0316947 C340.06769,40.0316947 341.156925,41.1198119 341.156925,42.462904 C341.156925,43.805437 340.06769,44.8935541 338.725716,44.8935541 C337.383183,44.8935541 336.294507,43.805437 336.294507,42.462904 C336.294507,41.1198119 337.383183,40.0316947 338.725716,40.0316947" id="Fill-137" fill="#FFFFFF"></path>
                            <path d="M345.692238,37.1816219 C347.034771,37.1816219 348.123447,38.269739 348.123447,39.6128312 C348.123447,40.9553641 347.034771,42.0434813 345.692238,42.0434813 C344.349705,42.0434813 343.261028,40.9553641 343.261028,39.6128312 C343.261028,38.269739 344.349705,37.1816219 345.692238,37.1816219" id="Fill-139" fill="#FFFFFF"></path>
                            <g id="Group-143" transform="translate(346.676576, 31.312723)">
                                <mask id="mask-4" fill="white">
                                    <use xlink:href="#path-3"></use>
                                </mask>
                                <g id="Clip-142"></g>
                                <path d="M2.69988362,0.131513436 C4.04241662,0.131513436 5.1310929,1.22018971 5.1310929,2.56272271 C5.1310929,3.90525571 4.04241662,4.99337283 2.69988362,4.99337283 C1.35790978,4.99337283 0.268674346,3.90525571 0.268674346,2.56272271 C0.268674346,1.22018971 1.35790978,0.131513436 2.69988362,0.131513436" id="Fill-141" fill="#FFFFFF" mask="url(#mask-4)"></path>
                            </g>
                            <path d="M345.963652,26.0926684 C347.305626,26.0926684 348.394861,27.1813446 348.394861,28.5238776 C348.394861,29.8664106 347.305626,30.9545278 345.963652,30.9545278 C344.621119,30.9545278 343.532443,29.8664106 343.532443,28.5238776 C343.532443,27.1813446 344.621119,26.0926684 345.963652,26.0926684" id="Fill-144" fill="#FFFFFF"></path>
                            <path d="M339.519717,23.1298138 C340.86225,23.1298138 341.950926,24.2179309 341.950926,25.5610231 C341.950926,26.9035561 340.86225,27.9916732 339.519717,27.9916732 C338.177184,27.9916732 337.088508,26.9035561 337.088508,25.5610231 C337.088508,24.2179309 338.177184,23.1298138 339.519717,23.1298138" id="Fill-146" fill="#FFFFFF"></path>
                            <path d="M306.798145,4.97525618 C305.456172,4.97525618 304.367495,3.88713906 304.367495,2.54404691 C304.367495,1.20151391 305.456172,0.11339679 306.798145,0.11339679 C308.140678,0.11339679 309.229355,1.20151391 309.229355,2.54404691 C309.229355,3.88713906 308.140678,4.97525618 306.798145,4.97525618" id="Fill-148" fill="#FFFFFF"></path>
                            <path d="M306.745752,15.4611043 C305.403219,15.4611043 304.314543,14.3729872 304.314543,13.029895 C304.314543,11.687362 305.403219,10.5992449 306.745752,10.5992449 C308.087726,10.5992449 309.176962,11.687362 309.176962,13.029895 C309.176962,14.3729872 308.087726,15.4611043 306.745752,15.4611043" id="Fill-150" fill="#FFFFFF"></path>
                            <path d="M306.862057,22.8436938 C305.519524,22.8436938 304.430848,21.7550175 304.430848,20.4124845 C304.430848,19.0699515 305.519524,17.9818344 306.862057,17.9818344 C308.20459,17.9818344 309.293266,19.0699515 309.293266,20.4124845 C309.293266,21.7550175 308.20459,22.8436938 306.862057,22.8436938" id="Fill-152" fill="#FFFFFF"></path>
                            <path d="M306.898066,29.9467054 C305.555534,29.9467054 304.466857,28.8585883 304.466857,27.5154961 C304.466857,26.1729631 305.555534,25.084846 306.898066,25.084846 C308.240599,25.084846 309.329276,26.1729631 309.329276,27.5154961 C309.329276,28.8585883 308.240599,29.9467054 306.898066,29.9467054" id="Fill-154" fill="#FFFFFF"></path>
                            <path d="M307.014371,37.3290153 C305.672397,37.3290153 304.583162,36.2408982 304.583162,34.8978061 C304.583162,33.5552731 305.672397,32.4671559 307.014371,32.4671559 C308.356904,32.4671559 309.44558,33.5552731 309.44558,34.8978061 C309.44558,36.2408982 308.356904,37.3290153 307.014371,37.3290153" id="Fill-156" fill="#FFFFFF"></path>
                            <path d="M306.825488,44.7092005 C305.483514,44.7092005 304.394279,43.6210834 304.394279,42.2779912 C304.394279,40.9354582 305.483514,39.8473411 306.825488,39.8473411 C308.168021,39.8473411 309.256697,40.9354582 309.256697,42.2779912 C309.256697,43.6210834 308.168021,44.7092005 306.825488,44.7092005" id="Fill-158" fill="#FFFFFF"></path>
                        </g>
                    </g>
                </g>
            </g>
        </g>
    </g>
</svg>